<svg xmlns="http://www.w3.org/2000/svg" xmlns:xlink="http://www.w3.org/1999/xlink" width="500" zoomAndPan="magnify" viewBox="0 0 375 374.999991" height="500" preserveAspectRatio="xMidYMid meet" version="1.0"><defs><clipPath id="71bf392860"><path d="M 136 129 L 249.175781 129 L 249.175781 246 L 136 246 Z M 136 129 " clip-rule="nonzero"/></clipPath><clipPath id="53a8618358"><path d="M 136 130 L 249.175781 130 L 249.175781 244 L 136 244 Z M 136 130 " clip-rule="nonzero"/></clipPath><clipPath id="5baf9bf2b0"><path d="M 136 131 L 249.175781 131 L 249.175781 244 L 136 244 Z M 136 131 " clip-rule="nonzero"/></clipPath><clipPath id="68ae3a7848"><path d="M 137 152 L 249.175781 152 L 249.175781 193 L 137 193 Z M 137 152 " clip-rule="nonzero"/></clipPath><clipPath id="024b0819af"><path d="M 146 136 L 249.175781 136 L 249.175781 201 L 146 201 Z M 146 136 " clip-rule="nonzero"/></clipPath><clipPath id="e78c7c9c4f"><path d="M 145 167 L 249.175781 167 L 249.175781 193 L 145 193 Z M 145 167 " clip-rule="nonzero"/></clipPath></defs><g clip-path="url(#71bf392860)"><path fill="#f4f4f2" d="M 189.507812 129.957031 C 190.664062 130.457031 191.730469 131.085938 192.808594 131.734375 L 193.753906 132.285156 C 194.40625 132.667969 195.0625 133.054688 195.714844 133.441406 C 196.65625 133.996094 197.601562 134.550781 198.546875 135.097656 C 199.789062 135.824219 201.03125 136.546875 202.269531 137.273438 C 205.269531 139.03125 208.28125 140.761719 211.292969 142.496094 C 213.328125 143.671875 215.363281 144.84375 217.394531 146.019531 C 219.4375 147.199219 221.480469 148.378906 223.523438 149.554688 C 224.535156 150.136719 225.542969 150.722656 226.554688 151.304688 C 227.929688 152.101562 229.308594 152.890625 230.691406 153.671875 L 232.730469 154.835938 L 233.679688 155.363281 C 235.332031 156.3125 236.554688 157.136719 237.632812 158.722656 C 237.910156 159.566406 237.984375 160.050781 237.988281 160.914062 L 237.992188 161.683594 L 237.996094 162.523438 L 238 163.410156 C 238.003906 164.378906 238.007812 165.351562 238.007812 166.320312 L 238.011719 168.34375 C 238.015625 169.757812 238.019531 171.171875 238.019531 172.585938 C 238.019531 174.398438 238.027344 176.210938 238.035156 178.023438 C 238.042969 179.414062 238.042969 180.808594 238.046875 182.203125 C 238.046875 182.871094 238.046875 183.539062 238.050781 184.203125 C 238.058594 185.140625 238.058594 186.074219 238.054688 187.007812 L 238.0625 187.84375 C 238.054688 189.089844 237.976562 189.914062 237.5 191.082031 C 236.054688 193.382812 233.089844 194.613281 230.796875 195.914062 C 230.261719 196.21875 229.722656 196.527344 229.1875 196.832031 C 228.632812 197.152344 228.074219 197.46875 227.515625 197.785156 C 225.644531 198.855469 223.777344 199.933594 221.910156 201.015625 L 220.871094 201.613281 C 220.550781 201.796875 220.230469 201.980469 219.902344 202.171875 L 219.050781 202.660156 L 218.257812 203.125 L 217.4375 203.484375 L 216.695312 204.0625 C 216.464844 205.070312 216.464844 205.070312 216.507812 206.253906 L 216.503906 206.925781 C 216.503906 207.40625 216.503906 207.890625 216.507812 208.371094 C 216.519531 209.132812 216.515625 209.898438 216.511719 210.664062 C 216.503906 212.285156 216.511719 213.910156 216.519531 215.535156 C 216.527344 217.410156 216.527344 219.289062 216.519531 221.164062 C 216.519531 221.914062 216.523438 222.664062 216.53125 223.414062 C 216.539062 227.1875 216.539062 227.1875 215.839844 228.710938 C 215.171875 229.648438 214.660156 230.21875 213.699219 230.835938 L 212.863281 231.375 C 211.488281 232.207031 210.09375 233.011719 208.6875 233.789062 C 207.722656 234.324219 206.761719 234.863281 205.800781 235.402344 C 204.207031 236.300781 202.628906 237.222656 201.050781 238.144531 L 200.117188 238.691406 C 198.535156 239.617188 196.953125 240.550781 195.375 241.492188 L 194.425781 242.054688 C 193.832031 242.410156 193.238281 242.765625 192.644531 243.121094 L 191.839844 243.601562 L 191.136719 244.023438 C 189.964844 244.660156 188.976562 245.011719 187.652344 245.199219 C 184.046875 245.097656 180.179688 241.976562 177.152344 240.167969 C 175.710938 239.308594 174.257812 238.464844 172.808594 237.617188 C 172.492188 237.433594 172.175781 237.25 171.851562 237.058594 C 168.5 235.109375 165.144531 233.164062 161.785156 231.230469 C 159.75 230.058594 157.71875 228.886719 155.6875 227.710938 C 153.605469 226.511719 151.523438 225.3125 149.441406 224.113281 C 148.421875 223.523438 147.398438 222.929688 146.378906 222.339844 C 145.21875 221.667969 144.054688 221.003906 142.882812 220.347656 L 142.148438 219.929688 C 141.710938 219.683594 141.277344 219.4375 140.835938 219.199219 C 139.394531 218.375 138.195312 217.375 137.320312 215.945312 C 136.746094 214.265625 136.605469 212.792969 136.609375 211.027344 L 136.605469 210.226562 C 136.601562 209.359375 136.601562 208.488281 136.601562 207.621094 L 136.597656 205.800781 C 136.597656 204.53125 136.597656 203.257812 136.597656 201.988281 C 136.601562 200.367188 136.59375 198.742188 136.585938 197.121094 C 136.582031 195.867188 136.582031 194.613281 136.582031 193.359375 C 136.582031 192.761719 136.582031 192.164062 136.578125 191.566406 C 136.574219 190.726562 136.578125 189.890625 136.582031 189.050781 L 136.574219 188.3125 C 136.589844 186.558594 136.945312 185.042969 137.632812 183.425781 C 138.453125 182.152344 139.320312 181.511719 140.636719 180.78125 L 141.695312 180.183594 L 142.828125 179.554688 C 143.21875 179.335938 143.609375 179.117188 144 178.898438 C 144.804688 178.445312 145.613281 177.992188 146.421875 177.539062 C 148.320312 176.476562 150.203125 175.386719 152.085938 174.300781 L 153.09375 173.71875 L 154.046875 173.171875 L 154.867188 172.699219 L 155.757812 172.167969 L 156.410156 171.9375 C 157.238281 171.585938 157.6875 171.304688 158.257812 170.605469 C 158.628906 168.902344 158.5625 167.210938 158.527344 165.480469 C 158.527344 164.96875 158.527344 164.457031 158.527344 163.945312 C 158.53125 162.605469 158.519531 161.261719 158.503906 159.917969 C 158.476562 157.769531 158.46875 155.625 158.472656 153.476562 C 158.46875 152.730469 158.460938 151.984375 158.445312 151.238281 C 158.414062 147.480469 158.414062 147.480469 159.125 145.949219 C 159.746094 145.070312 160.160156 144.546875 161.074219 144.007812 L 161.820312 143.554688 L 162.632812 143.089844 L 163.492188 142.578125 C 164.445312 142.019531 165.402344 141.464844 166.363281 140.917969 L 167.980469 139.992188 L 169.648438 139.035156 C 171.070312 138.222656 172.484375 137.402344 173.898438 136.585938 C 175.234375 135.8125 176.574219 135.039062 177.910156 134.269531 C 178.878906 133.710938 179.84375 133.152344 180.808594 132.589844 L 182.59375 131.558594 L 183.414062 131.078125 L 184.171875 130.640625 L 184.828125 130.261719 C 186.398438 129.484375 187.832031 129.550781 189.507812 129.957031 M 186.351562 141.847656 L 185.582031 142.308594 L 184.703125 142.828125 L 183.746094 143.402344 C 183.070312 143.800781 182.394531 144.199219 181.722656 144.601562 L 181.1875 144.917969 C 179.832031 145.714844 178.476562 146.5 177.109375 147.273438 L 176.507812 147.617188 C 175.726562 148.058594 174.945312 148.503906 174.164062 148.945312 C 173.621094 149.253906 173.074219 149.5625 172.53125 149.875 L 171.585938 150.410156 L 170.757812 150.90625 L 170.03125 151.261719 L 169.507812 151.84375 C 169.332031 152.789062 169.363281 153.714844 169.386719 154.671875 C 169.386719 154.949219 169.390625 155.222656 169.390625 155.507812 C 169.398438 156.390625 169.414062 157.273438 169.429688 158.15625 C 169.4375 158.753906 169.441406 159.351562 169.449219 159.949219 C 169.460938 161.417969 169.484375 162.882812 169.507812 164.351562 C 171.9375 163.039062 174.34375 161.691406 176.738281 160.316406 C 177.300781 159.996094 177.859375 159.671875 178.421875 159.351562 L 179.535156 158.714844 L 180.082031 158.402344 C 181.621094 157.519531 183.144531 156.617188 184.664062 155.707031 C 185.6875 155.152344 186.472656 154.949219 187.632812 154.972656 C 189.890625 155.367188 191.585938 156.347656 193.53125 157.53125 L 195.539062 158.726562 L 196.585938 159.351562 C 198.277344 160.359375 199.988281 161.335938 201.695312 162.320312 L 203.722656 163.492188 C 205.101562 164.285156 206.480469 165.078125 207.859375 165.867188 L 209.878906 167.027344 L 210.8125 167.558594 C 214.292969 169.570312 214.292969 169.570312 215.445312 170.917969 C 216.019531 172.113281 216.152344 173.089844 216.167969 174.410156 L 216.1875 175.566406 L 216.199219 176.804688 C 216.203125 177.230469 216.210938 177.65625 216.21875 178.082031 C 216.234375 179.199219 216.246094 180.3125 216.257812 181.429688 C 216.269531 182.570312 216.285156 183.710938 216.300781 184.851562 C 216.332031 187.085938 216.359375 189.320312 216.382812 191.554688 C 218.933594 190.207031 221.480469 188.855469 223.960938 187.371094 L 224.640625 186.972656 C 225.546875 186.433594 226.441406 185.886719 227.320312 185.300781 C 227.507812 184.425781 227.507812 184.425781 227.542969 183.375 L 227.617188 182.148438 C 227.703125 180.28125 227.757812 178.414062 227.800781 176.542969 C 227.828125 175.558594 227.871094 174.582031 227.9375 173.597656 C 228.261719 168.90625 228.261719 168.90625 227.320312 164.351562 C 225.621094 162.265625 223.191406 161.289062 220.734375 160.339844 C 219.550781 159.867188 218.527344 159.269531 217.4375 158.605469 C 216.773438 158.226562 216.109375 157.851562 215.445312 157.472656 C 212.40625 155.742188 209.378906 153.992188 206.363281 152.226562 C 203.746094 150.695312 201.125 149.175781 198.496094 147.667969 C 196.757812 146.667969 195.023438 145.65625 193.296875 144.632812 L 192.253906 144.015625 C 191.59375 143.628906 190.9375 143.238281 190.28125 142.84375 L 189.390625 142.316406 L 188.613281 141.851562 C 187.730469 141.417969 187.234375 141.414062 186.351562 141.847656 M 186.230469 166.980469 L 185.171875 167.632812 C 182.597656 169.210938 179.976562 170.703125 177.351562 172.191406 C 176.804688 172.5 176.261719 172.808594 175.71875 173.117188 L 174.761719 173.660156 L 174.238281 173.976562 C 173.570312 174.359375 173.570312 174.359375 172.550781 174.824219 C 171.34375 175.433594 170.496094 175.9375 169.507812 176.859375 C 168.925781 178.445312 168.964844 179.957031 169.011719 181.621094 C 169.011719 182.082031 169.011719 182.542969 169.011719 183.003906 C 169.007812 183.96875 169.023438 184.929688 169.046875 185.894531 C 169.078125 187.128906 169.078125 188.355469 169.066406 189.589844 C 169.0625 190.542969 169.070312 191.492188 169.082031 192.445312 C 169.089844 192.898438 169.089844 193.351562 169.085938 193.808594 C 169.085938 195.1875 169.128906 196.476562 169.507812 197.808594 C 170.328125 198.730469 171.203125 199.195312 172.320312 199.683594 L 173.179688 200.203125 L 173.902344 200.605469 L 174.742188 201.074219 L 175.621094 201.5625 C 177.628906 202.679688 179.621094 203.808594 181.589844 205 L 182.613281 205.613281 C 183.265625 206.007812 183.917969 206.402344 184.570312 206.804688 L 185.46875 207.34375 L 186.257812 207.824219 C 186.996094 208.1875 186.996094 208.1875 187.792969 208.070312 C 188.632812 207.792969 189.316406 207.445312 190.078125 206.992188 L 190.960938 206.46875 L 191.910156 205.898438 L 193.921875 204.707031 L 194.980469 204.078125 C 196.089844 203.421875 197.207031 202.777344 198.328125 202.136719 L 198.886719 201.816406 C 199.78125 201.300781 200.679688 200.789062 201.578125 200.273438 L 202.558594 199.710938 L 203.425781 199.214844 L 204.195312 198.746094 L 204.851562 198.371094 L 205.445312 197.808594 C 205.671875 196.902344 205.671875 196.902344 205.695312 195.84375 L 205.761719 194.613281 C 205.78125 194.167969 205.792969 193.722656 205.808594 193.277344 L 205.832031 192.59375 C 205.867188 191.398438 205.894531 190.207031 205.917969 189.011719 C 205.9375 188.027344 205.976562 187.046875 206.03125 186.066406 C 206.332031 181.398438 206.332031 181.398438 205.445312 176.859375 C 204.113281 175.152344 202.359375 174.304688 200.390625 173.5 L 199.484375 173.164062 C 197.945312 172.542969 196.554688 171.671875 195.132812 170.820312 C 194.59375 170.511719 194.054688 170.207031 193.515625 169.902344 C 192.554688 169.355469 191.601562 168.804688 190.648438 168.25 L 190.027344 167.890625 C 189.492188 167.582031 188.957031 167.269531 188.421875 166.957031 C 187.394531 166.414062 187.242188 166.410156 186.230469 166.980469 M 156.027344 184.488281 L 155.453125 184.816406 C 154.84375 185.167969 154.238281 185.515625 153.628906 185.867188 L 152.414062 186.566406 C 151.339844 187.183594 150.265625 187.804688 149.195312 188.429688 L 148.371094 188.808594 L 147.632812 189.367188 C 147.378906 190.28125 147.378906 190.28125 147.390625 191.355469 L 147.351562 192.601562 C 147.347656 193.054688 147.34375 193.503906 147.339844 193.953125 L 147.316406 195.339844 C 147.304688 196.308594 147.296875 197.28125 147.292969 198.25 C 147.289062 199.488281 147.257812 200.726562 147.21875 201.964844 C 147.195312 202.921875 147.1875 203.875 147.1875 204.832031 C 147.183594 205.289062 147.175781 205.746094 147.15625 206.199219 C 147.105469 207.648438 147.140625 208.933594 147.632812 210.316406 C 148.871094 211.476562 150.15625 212.109375 151.695312 212.816406 C 152.375 213.203125 153.050781 213.59375 153.722656 213.992188 C 154.417969 214.390625 155.117188 214.785156 155.816406 215.183594 C 156.589844 215.621094 157.359375 216.0625 158.128906 216.5 L 158.71875 216.835938 C 163.269531 219.425781 167.800781 222.058594 172.320312 224.699219 C 175.007812 226.269531 177.695312 227.832031 180.386719 229.390625 L 181.386719 229.96875 C 182.015625 230.332031 182.648438 230.691406 183.28125 231.050781 C 183.902344 231.410156 184.511719 231.785156 185.113281 232.171875 C 185.945312 232.691406 186.707031 233.132812 187.632812 233.453125 C 188.382812 233.371094 188.78125 233.160156 189.410156 232.746094 L 189.996094 232.300781 C 190.449219 231.996094 190.90625 231.695312 191.359375 231.390625 L 192.113281 230.875 C 193.71875 229.820312 195.398438 228.894531 197.066406 227.945312 C 197.726562 227.5625 198.390625 227.179688 199.050781 226.796875 C 201.179688 225.574219 203.3125 224.355469 205.445312 223.136719 L 205.445312 210.628906 C 203.894531 211.144531 202.675781 211.726562 201.304688 212.5625 C 200.839844 212.84375 200.375 213.121094 199.90625 213.398438 L 199.125 213.863281 C 197.59375 214.773438 196.050781 215.675781 194.507812 216.566406 C 193.96875 216.878906 193.429688 217.191406 192.890625 217.507812 L 191.875 218.09375 L 190.972656 218.621094 C 189.796875 219.25 188.847656 219.671875 187.515625 219.796875 C 186.242188 219.683594 185.320312 219.3125 184.214844 218.71875 L 183.574219 218.386719 C 180.625 216.832031 177.769531 215.109375 174.898438 213.414062 C 173.515625 212.601562 172.121094 211.796875 170.730469 210.996094 C 169.703125 210.40625 168.675781 209.8125 167.652344 209.21875 C 166.476562 208.539062 165.296875 207.867188 164.109375 207.203125 L 163.363281 206.78125 C 162.921875 206.53125 162.476562 206.28125 162.03125 206.039062 C 161.03125 205.46875 160.410156 204.953125 159.703125 204.035156 C 158.984375 202.742188 158.839844 201.816406 158.820312 200.359375 L 158.800781 199.21875 L 158.785156 197.992188 L 158.765625 196.734375 C 158.75 195.628906 158.730469 194.527344 158.71875 193.425781 C 158.703125 192.300781 158.683594 191.175781 158.667969 190.046875 C 158.632812 187.839844 158.601562 185.632812 158.570312 183.425781 C 157.570312 183.425781 156.886719 183.992188 156.027344 184.488281 M 390.6875 167.394531 C 392.136719 167.992188 393.179688 168.765625 394.1875 169.980469 C 394.628906 170.59375 395.035156 171.214844 395.4375 171.855469 L 396.0625 170.605469 L 396.6875 170.605469 L 396.902344 170.058594 C 397.601562 168.859375 398.609375 168.265625 399.773438 167.554688 C 401.65625 166.816406 403.777344 166.949219 405.75 167.164062 C 407.402344 167.652344 408.722656 168.464844 409.929688 169.6875 C 411.167969 171.300781 411.816406 173.332031 412.09375 175.332031 C 412.304688 177.355469 412.355469 179.351562 412.34375 181.386719 L 412.34375 182.382812 C 412.339844 183.421875 412.335938 184.457031 412.332031 185.496094 C 412.332031 186.207031 412.332031 186.914062 412.328125 187.625 C 412.324219 189.351562 412.320312 191.078125 412.3125 192.804688 L 405.4375 192.804688 L 405.402344 189.464844 C 405.390625 188.390625 405.375 187.320312 405.355469 186.246094 C 405.347656 185.503906 405.335938 184.761719 405.332031 184.015625 C 405.320312 182.945312 405.304688 181.875 405.285156 180.804688 L 405.28125 179.804688 C 405.242188 177.957031 405.070312 176.613281 404.1875 174.984375 C 403.757812 174.394531 403.757812 174.394531 403.25 174.042969 C 401.976562 173.621094 400.832031 173.574219 399.5 173.730469 C 398.417969 174.167969 398.417969 174.167969 397.625 174.984375 C 396.558594 176.898438 396.542969 178.644531 396.527344 180.804688 L 396.511719 181.847656 C 396.496094 182.941406 396.484375 184.03125 396.472656 185.125 C 396.464844 185.867188 396.453125 186.613281 396.441406 187.355469 C 396.414062 189.171875 396.394531 190.988281 396.375 192.804688 L 389.5 192.804688 L 389.464844 189.472656 C 389.453125 188.402344 389.4375 187.332031 389.417969 186.261719 C 389.410156 185.523438 389.402344 184.78125 389.394531 184.039062 C 389.382812 182.972656 389.367188 181.902344 389.347656 180.835938 L 389.34375 179.839844 C 389.304688 177.90625 389.078125 176.429688 388.25 174.671875 C 387.632812 173.980469 387.632812 173.980469 386.6875 173.730469 C 385.277344 173.570312 384.019531 173.582031 382.667969 174.023438 C 381.648438 175.011719 381.183594 176.144531 380.753906 177.484375 C 380.578125 178.695312 380.5625 179.890625 380.5625 181.109375 C 380.554688 181.445312 380.550781 181.78125 380.546875 182.128906 C 380.53125 183.191406 380.523438 184.257812 380.519531 185.320312 C 380.507812 186.046875 380.5 186.773438 380.488281 187.496094 C 380.464844 189.265625 380.453125 191.035156 380.441406 192.804688 L 373.566406 192.804688 L 373.566406 167.792969 L 380.128906 167.792969 L 380.441406 170.292969 L 380.910156 169.847656 C 383.183594 167.761719 383.183594 167.761719 384.425781 167.300781 C 386.46875 166.902344 388.671875 166.867188 390.6875 167.394531 M 267.746094 157.0625 L 268.582031 157.046875 C 270.835938 157.046875 272.902344 157.425781 274.917969 158.476562 C 277.03125 159.714844 278.390625 161.34375 279.746094 163.355469 C 280.117188 164.015625 280.277344 164.558594 280.441406 165.289062 C 279.414062 165.601562 278.386719 165.914062 277.355469 166.226562 L 276.46875 166.5 L 275.621094 166.753906 L 274.835938 166.992188 C 274.191406 167.164062 274.191406 167.164062 273.566406 167.164062 L 273 166.304688 C 272.320312 165.289062 271.765625 164.714844 270.753906 164.039062 C 269.371094 163.394531 268.054688 163.28125 266.550781 163.3125 C 265.5 163.445312 264.6875 163.785156 263.753906 164.269531 C 263.222656 164.644531 263.222656 164.644531 262.882812 165.238281 C 262.496094 166.269531 262.464844 167.195312 262.5 168.289062 C 262.585938 169.125 262.585938 169.125 263.3125 169.941406 C 265.054688 171.097656 267.238281 171.503906 269.226562 172.03125 C 274.550781 173.457031 274.550781 173.457031 276.691406 175.296875 L 277.300781 175.8125 C 278.769531 177.167969 279.714844 178.65625 280.3125 180.566406 C 280.671875 182.417969 280.6875 184.414062 280.183594 186.230469 C 279.734375 187.367188 279.246094 188.347656 278.566406 189.367188 L 277.941406 189.367188 L 277.699219 189.941406 C 277.273438 190.695312 276.9375 190.96875 276.203125 191.417969 C 273.558594 192.976562 270.84375 193.425781 267.804688 193.527344 C 264.878906 193.496094 262.070312 192.972656 259.429688 191.6875 C 257.285156 190.394531 255.789062 188.945312 254.546875 186.785156 C 254.195312 185.925781 254.195312 185.925781 254.195312 184.988281 L 260.753906 183.113281 L 262.800781 185.496094 C 263.585938 186.257812 264.089844 186.5625 265.128906 186.863281 C 266.617188 187.164062 268.089844 187.285156 269.582031 186.980469 C 270.941406 186.484375 271.617188 186.003906 272.628906 184.988281 C 273.007812 183.851562 273.066406 183.058594 272.941406 181.863281 C 272.039062 180.648438 270.980469 180.023438 269.632812 179.363281 C 268.199219 178.761719 266.691406 178.410156 265.1875 178.011719 C 260.027344 176.566406 260.027344 176.566406 257.941406 174.671875 C 256.761719 173.445312 255.8125 172.039062 255.277344 170.414062 C 254.816406 168.070312 254.890625 165.703125 255.640625 163.433594 C 256.277344 161.925781 256.964844 160.691406 258.253906 159.660156 C 261.34375 157.78125 264.175781 157.050781 267.746094 157.0625 M 302.152344 167.964844 C 304.238281 169.160156 305.859375 170.765625 307.140625 172.792969 C 308.84375 175.890625 309.191406 178.597656 309.191406 182.175781 L 291.066406 182.175781 C 291.773438 184.539062 291.773438 184.539062 292.824219 185.554688 C 294.003906 186.414062 295.257812 186.917969 296.691406 187.175781 C 298.285156 187.238281 299.476562 187.042969 300.890625 186.296875 C 301.601562 185.691406 302.128906 185.144531 302.628906 184.363281 C 303.914062 184.582031 305.082031 184.964844 306.300781 185.417969 L 307.390625 185.816406 L 308.253906 186.238281 L 308.566406 187.175781 C 307.640625 188.925781 306.125 190.441406 304.503906 191.554688 C 302 192.976562 299.390625 193.453125 296.535156 193.527344 C 293.992188 193.476562 291.980469 192.882812 289.757812 191.652344 C 287.953125 190.496094 286.683594 189.179688 285.609375 187.324219 C 284.261719 184.597656 283.777344 181.898438 283.917969 178.871094 C 284.160156 176.585938 284.703125 174.566406 285.957031 172.625 C 287.617188 170.402344 289.519531 168.988281 292.003906 167.792969 C 295.085938 166.65625 299.132812 166.667969 302.152344 167.964844 M 292.941406 174.042969 C 292.164062 174.765625 292.164062 174.765625 291.691406 175.609375 L 291.378906 177.171875 L 302.003906 177.171875 C 301.863281 175.363281 301.863281 175.363281 301.007812 174.457031 C 300.085938 173.695312 299.378906 173.203125 298.253906 172.792969 C 296.230469 172.484375 294.621094 172.875 292.941406 174.042969 M 344.816406 167.792969 L 351.378906 167.792969 L 351.425781 170.769531 C 351.441406 171.730469 351.460938 172.6875 351.476562 173.648438 C 351.488281 174.3125 351.5 174.972656 351.511719 175.636719 C 351.523438 176.59375 351.542969 177.550781 351.5625 178.507812 L 351.570312 179.398438 C 351.621094 181.5625 351.734375 183.703125 352.863281 185.59375 C 353.539062 186.28125 353.539062 186.28125 354.445312 186.648438 C 355.566406 186.890625 356.484375 186.96875 357.628906 186.863281 C 358.648438 186.574219 358.648438 186.574219 359.503906 185.925781 C 360.292969 184.882812 360.8125 183.769531 361.066406 182.488281 C 361.101562 181.992188 361.121094 181.492188 361.128906 180.996094 L 361.148438 180.105469 L 361.164062 179.148438 L 361.183594 178.167969 C 361.203125 177.132812 361.222656 176.097656 361.242188 175.0625 L 361.28125 172.953125 C 361.316406 171.234375 361.347656 169.511719 361.378906 167.792969 L 367.941406 167.792969 L 367.941406 192.804688 L 361.691406 192.804688 L 361.691406 189.992188 L 361.105469 190.507812 C 359.652344 191.734375 358.339844 192.804688 356.484375 193.308594 C 354.246094 193.6875 352.078125 193.578125 349.925781 192.832031 C 348.589844 192.214844 347.601562 191.460938 346.691406 190.304688 C 345.476562 188.023438 344.773438 185.820312 344.78125 183.234375 L 344.78125 182.191406 L 344.785156 181.074219 L 344.785156 179.925781 C 344.789062 178.714844 344.792969 177.503906 344.796875 176.292969 C 344.796875 175.472656 344.800781 174.648438 344.800781 173.828125 C 344.804688 171.816406 344.808594 169.804688 344.816406 167.792969 M 328.566406 167.476562 L 328.566406 174.042969 L 326.242188 174.398438 C 324.339844 174.726562 322.851562 175.199219 321.253906 176.328125 C 320.597656 177.023438 320.410156 177.496094 320.128906 178.421875 C 320.023438 179.519531 320.011719 180.617188 320 181.722656 L 319.980469 182.683594 C 319.960938 183.691406 319.949219 184.703125 319.933594 185.710938 L 319.898438 187.769531 C 319.867188 189.449219 319.839844 191.128906 319.816406 192.804688 L 313.253906 192.804688 L 313.253906 167.792969 L 319.816406 167.792969 L 320.128906 171.542969 L 321.066406 170.527344 C 322.410156 169.191406 323.746094 168.410156 325.566406 167.890625 C 326.59375 167.648438 327.507812 167.476562 328.566406 167.476562 M 332.628906 167.792969 L 339.191406 167.792969 L 339.191406 192.804688 L 332.628906 192.804688 Z M 332.628906 167.792969 " fill-opacity="1" fill-rule="nonzero"/></g><g clip-path="url(#53a8618358)"><path fill="#f4f4f2" d="M 189.820312 130.269531 C 190.230469 130.460938 190.640625 130.65625 191.050781 130.855469 L 191.742188 131.183594 L 192.320312 131.519531 L 192.632812 132.144531 L 192.191406 132.519531 C 190.433594 134.027344 188.800781 135.636719 187.175781 137.285156 L 185.5 138.972656 C 184.628906 139.851562 183.753906 140.734375 182.882812 141.617188 C 182.039062 142.472656 181.1875 143.328125 180.339844 144.183594 L 179.546875 144.992188 L 178.8125 145.726562 L 178.167969 146.382812 L 177.632812 146.839844 L 177.007812 146.839844 L 176.773438 147.417969 C 176.382812 148.09375 176.382812 148.09375 175.8125 148.511719 L 175.125 148.875 L 174.375 149.28125 L 173.589844 149.695312 L 172.058594 150.519531 L 171.371094 150.878906 C 170.839844 151.175781 170.328125 151.507812 169.820312 151.84375 C 169.636719 152.820312 169.636719 152.820312 169.605469 153.914062 L 169.542969 155.042969 L 169.507812 155.910156 L 168.945312 156.011719 C 168.164062 156.25 167.839844 156.527344 167.269531 157.109375 L 166.734375 157.648438 L 166.1875 158.214844 L 165.632812 158.773438 C 164.855469 159.570312 164.191406 160.292969 163.570312 161.226562 C 163.152344 161.128906 162.734375 161.027344 162.320312 160.910156 L 162.007812 160.597656 C 161.828125 159.585938 161.75 159.070312 162.007812 158.097656 C 162.832031 157.023438 163.753906 156.113281 164.820312 155.285156 L 165.445312 155.285156 L 165.445312 154.660156 L 166.070312 154.660156 L 166.070312 154.03125 L 166.695312 154.03125 L 166.695312 153.40625 L 167.320312 153.40625 L 167.320312 152.78125 L 167.945312 152.78125 L 167.945312 152.15625 L 168.570312 152.15625 L 168.570312 151.53125 L 169.195312 151.53125 L 169.195312 150.90625 L 169.820312 150.90625 L 169.820312 150.28125 L 170.445312 150.28125 L 170.445312 149.65625 L 171.070312 149.65625 L 171.070312 149.03125 L 171.695312 149.03125 L 171.941406 148.476562 C 172.347656 147.730469 172.785156 147.234375 173.386719 146.632812 L 174.042969 145.96875 L 174.753906 145.261719 L 175.480469 144.53125 C 175.988281 144.023438 176.496094 143.515625 177.007812 143.007812 C 177.789062 142.230469 178.566406 141.449219 179.34375 140.664062 L 180.828125 139.183594 L 181.535156 138.472656 L 182.191406 137.820312 L 182.773438 137.242188 L 183.257812 136.835938 L 183.882812 136.835938 L 184.117188 136.289062 C 184.5625 135.484375 185.074219 134.945312 185.730469 134.300781 L 186.453125 133.585938 L 187.203125 132.847656 L 187.960938 132.097656 C 188.582031 131.488281 189.199219 130.878906 189.820312 130.269531 M 146.125 178.1875 C 147.1875 178.621094 147.894531 179.402344 148.683594 180.210938 C 149.195312 180.925781 149.195312 180.925781 149.359375 181.644531 C 149.351562 182.332031 149.351562 182.332031 149.195312 183.425781 L 148.257812 183.738281 L 147.945312 184.675781 C 147.066406 185.222656 147.066406 185.222656 146.070312 185.613281 C 145.328125 185.515625 145.328125 185.515625 144.820312 185.300781 L 144.820312 184.675781 L 144.195312 184.675781 L 144.183594 185.25 C 144.058594 187.445312 143.414062 189.035156 142.320312 190.929688 L 141.382812 190.929688 L 141.382812 191.554688 L 140.445312 191.554688 L 140.445312 192.179688 L 138.882812 192.179688 L 138.882812 192.804688 L 136.695312 192.804688 C 136.667969 191.769531 136.652344 190.734375 136.636719 189.699219 L 136.613281 188.820312 C 136.59375 186.859375 136.808594 185.214844 137.632812 183.425781 C 138.335938 182.203125 139.226562 181.605469 140.398438 180.878906 C 140.984375 180.539062 141.574219 180.203125 142.164062 179.867188 L 143.066406 179.339844 L 143.933594 178.84375 L 144.722656 178.394531 C 145.445312 178.109375 145.445312 178.109375 146.125 178.1875 M 298.566406 167.164062 C 299.191406 168.105469 299.191406 168.105469 299.265625 168.835938 L 299.25 169.648438 L 299.246094 170.457031 C 299.195312 171.171875 299.078125 171.796875 298.878906 172.480469 L 297.988281 172.644531 C 295.621094 173.105469 295.621094 173.105469 293.371094 173.945312 C 292.398438 174.898438 291.894531 175.921875 291.378906 177.171875 L 293.566406 177.171875 C 292.125 179.078125 292.125 179.078125 291.066406 179.671875 C 290.476562 179.605469 290.476562 179.605469 289.816406 179.359375 C 289.246094 178.894531 289.246094 178.894531 288.667969 178.304688 L 288.042969 177.664062 L 287.394531 176.996094 L 286.734375 176.320312 C 286.199219 175.773438 285.664062 175.222656 285.128906 174.671875 C 285.945312 172.621094 286.914062 171.164062 288.566406 169.667969 C 291.644531 167.5625 294.835938 166.671875 298.566406 167.164062 M 412.3125 178.421875 L 412.3125 192.804688 L 405.4375 192.804688 L 405.4375 178.734375 L 405.75 178.734375 L 405.75 184.675781 L 406.980469 183.601562 L 407.675781 182.996094 C 407.976562 182.730469 408.277344 182.460938 408.5625 182.175781 C 409.085938 182.160156 409.605469 182.160156 410.125 182.175781 L 410.125 180.609375 L 410.75 180.609375 L 411.023438 179.691406 L 411.375 178.734375 C 412 178.421875 412 178.421875 412.3125 178.421875 M 170.132812 223.449219 C 171.257812 223.875 172.289062 224.375 173.332031 224.96875 L 174.265625 225.5 L 175.230469 226.046875 L 176.183594 226.585938 C 177.085938 227.101562 177.984375 227.617188 178.882812 228.140625 L 179.667969 228.585938 C 180.257812 228.929688 180.824219 229.3125 181.382812 229.703125 L 181.382812 230.640625 L 182.007812 230.640625 L 182.007812 231.265625 L 182.632812 231.265625 L 182.632812 231.890625 L 183.257812 231.890625 L 183.257812 232.515625 L 183.882812 232.515625 L 183.882812 233.140625 L 184.507812 233.140625 L 184.507812 233.769531 L 185.132812 233.769531 L 185.132812 234.394531 L 185.679688 234.632812 C 186.464844 235.0625 186.984375 235.550781 187.613281 236.1875 L 188.304688 236.886719 L 189.019531 237.617188 L 189.730469 238.335938 C 190.183594 238.796875 190.636719 239.257812 191.089844 239.71875 C 191.597656 240.234375 192.109375 240.742188 192.625 241.246094 C 193.257812 241.898438 193.257812 241.898438 193.570312 242.523438 C 191.984375 243.53125 191.984375 243.53125 191.382812 243.773438 C 190.800781 243.707031 190.800781 243.707031 190.132812 243.460938 C 189.515625 242.945312 189.515625 242.945312 188.867188 242.277344 L 188.144531 241.539062 L 187.398438 240.765625 C 185.839844 239.164062 184.28125 237.613281 182.585938 236.15625 C 181.667969 235.34375 180.855469 234.441406 180.035156 233.53125 C 177.542969 230.816406 174.929688 228.21875 172.3125 225.621094 C 171.582031 224.902344 170.859375 224.175781 170.132812 223.449219 M 260.441406 183.113281 C 262.003906 184.675781 262.003906 184.675781 262.539062 185.21875 C 263.308594 185.945312 263.945312 186.46875 264.957031 186.808594 C 265.640625 186.960938 266.3125 187.085938 267.003906 187.175781 L 267.316406 189.054688 L 267.003906 188.429688 L 265.753906 188.429688 L 265.753906 187.804688 C 265.066406 187.632812 265.066406 187.632812 264.191406 187.804688 C 263.398438 188.398438 262.738281 189.109375 262.066406 189.835938 L 261.5 190.421875 C 261.039062 190.902344 260.582031 191.382812 260.128906 191.867188 C 258.105469 190.773438 256.441406 189.722656 255.132812 187.804688 C 254.195312 186.175781 254.195312 186.175781 254.195312 184.988281 Z M 336.574219 155.910156 C 337.628906 156.222656 337.628906 156.222656 338.507812 156.886719 C 339.300781 157.929688 339.609375 158.675781 339.816406 159.972656 C 339.605469 161.148438 339.246094 161.777344 338.527344 162.730469 C 337.695312 163.363281 337.375 163.550781 336.398438 163.726562 C 335.496094 163.78125 335.003906 163.6875 334.113281 163.414062 C 333.183594 162.738281 332.726562 162.1875 332.222656 161.171875 C 332.003906 160.597656 332.003906 160.597656 331.847656 159.640625 C 332.003906 158.722656 332.003906 158.722656 332.492188 157.726562 C 333.253906 156.847656 333.253906 156.847656 334.289062 156.242188 C 335.441406 155.910156 335.441406 155.910156 336.574219 155.910156 M 255.445312 164.976562 L 256.070312 164.976562 L 256.070312 165.601562 L 256.695312 165.601562 C 257.1875 166.105469 257.1875 166.105469 257.746094 166.773438 C 258.363281 167.5 258.960938 168.183594 259.644531 168.847656 L 260.128906 169.355469 L 260.128906 169.980469 L 260.753906 169.980469 L 260.753906 170.605469 L 261.316406 170.855469 C 262.445312 171.46875 263.179688 172.351562 263.878906 173.417969 C 264.210938 174.59375 264.210938 174.59375 264.191406 175.609375 C 263.742188 176.214844 263.742188 176.214844 263.253906 176.546875 C 262.667969 176.3125 262.667969 176.3125 262.003906 175.921875 L 261.691406 175.277344 L 261.378906 174.671875 C 260.738281 174.417969 260.738281 174.417969 260.128906 174.359375 L 260.128906 173.730469 L 259.503906 173.730469 L 259.503906 173.105469 L 258.878906 173.105469 L 258.878906 172.480469 L 258.253906 172.480469 C 257.808594 172.011719 257.808594 172.011719 257.316406 171.40625 C 256.648438 170.558594 256.648438 170.558594 255.757812 169.980469 L 255.757812 169.355469 L 255.132812 169.355469 C 255.121094 168.683594 255.117188 168.011719 255.113281 167.339844 L 255.101562 166.210938 L 255.132812 165.289062 Z M 255.445312 164.976562 " fill-opacity="1" fill-rule="nonzero"/></g><g clip-path="url(#5baf9bf2b0)"><path fill="#f4f4f2" d="M 408.25 183.738281 L 409.5 183.738281 L 409.5 184.675781 L 410.125 184.675781 C 410.277344 185.066406 410.425781 185.457031 410.574219 185.847656 L 410.828125 186.507812 C 411.050781 187.144531 411.222656 187.773438 411.375 188.429688 L 412.3125 188.429688 L 412.3125 192.804688 L 405.4375 192.804688 L 405.4375 189.367188 L 407 189.679688 L 407 190.304688 L 407.898438 190.597656 C 408.875 190.929688 408.875 190.929688 409.5 191.242188 L 409.1875 189.367188 L 408.5625 189.367188 C 408.171875 188.457031 407.9375 187.867188 407.9375 186.863281 L 407.3125 186.863281 C 407.078125 186.003906 407.078125 186.003906 407 184.988281 C 407.527344 184.246094 407.527344 184.246094 408.25 183.738281 M 284.816406 175.609375 C 285.71875 176.070312 286.292969 176.410156 286.847656 177.269531 L 287.316406 178.109375 L 288.15625 179.007812 C 288.878906 179.984375 288.878906 179.984375 289.035156 181.160156 L 288.878906 182.175781 L 287.941406 182.800781 L 287.628906 183.738281 L 287.003906 183.738281 L 287.003906 184.363281 L 286.066406 184.988281 L 285.128906 184.988281 L 284.816406 183.425781 L 284.191406 183.425781 C 283.902344 180.917969 283.78125 178.675781 284.503906 176.234375 Z M 170.132812 223.449219 C 171.683594 224.015625 173.226562 224.628906 174.375 225.84375 L 174.875 226.445312 C 176.136719 227.921875 177.488281 229.289062 178.863281 230.660156 L 179.582031 231.382812 C 180.65625 232.457031 181.734375 233.507812 182.886719 234.496094 C 184.480469 235.867188 185.964844 237.347656 187.453125 238.828125 C 187.949219 239.324219 188.449219 239.8125 188.949219 240.304688 L 189.898438 241.246094 L 190.761719 242.105469 L 191.382812 242.835938 L 191.382812 243.773438 C 190.835938 243.691406 190.835938 243.691406 190.132812 243.460938 C 189.515625 242.945312 189.515625 242.945312 188.867188 242.277344 L 188.144531 241.539062 L 187.398438 240.765625 C 185.839844 239.164062 184.28125 237.613281 182.585938 236.15625 C 181.667969 235.34375 180.855469 234.441406 180.035156 233.53125 C 177.542969 230.816406 174.929688 228.21875 172.3125 225.621094 C 171.582031 224.902344 170.859375 224.175781 170.132812 223.449219 M 191.070312 131.207031 L 192.632812 131.832031 L 192.042969 132.421875 C 191.25 133.214844 190.460938 134.011719 189.667969 134.808594 C 188.355469 136.132812 187.035156 137.460938 185.71875 138.785156 C 184.921875 139.582031 184.128906 140.382812 183.335938 141.183594 C 182.566406 141.960938 181.792969 142.734375 181.019531 143.511719 C 180.582031 143.949219 180.148438 144.390625 179.710938 144.832031 L 178.914062 145.632812 L 178.207031 146.339844 L 177.632812 146.839844 L 177.007812 146.839844 L 176.832031 147.40625 C 176.382812 148.09375 176.382812 148.09375 175.855469 148.382812 C 175.308594 148.613281 174.753906 148.824219 174.195312 149.03125 C 174.675781 147.886719 175.359375 147.171875 176.238281 146.3125 L 177.082031 145.476562 L 177.964844 144.613281 C 178.542969 144.046875 179.117188 143.480469 179.695312 142.910156 L 180.472656 142.152344 C 181.085938 141.570312 181.085938 141.570312 181.382812 140.898438 L 182.007812 140.898438 L 182.007812 140.273438 L 182.632812 140.273438 L 182.632812 139.648438 L 183.257812 139.648438 L 183.492188 139.082031 C 183.9375 138.300781 184.375 137.933594 185.132812 137.460938 L 185.757812 137.460938 L 185.757812 136.835938 L 186.382812 136.835938 L 186.382812 136.210938 L 187.007812 136.210938 L 187.007812 135.585938 L 187.632812 135.585938 L 187.945312 134.332031 L 188.570312 134.332031 L 188.570312 133.707031 L 189.195312 133.707031 L 189.195312 133.082031 L 189.820312 133.082031 L 189.820312 132.457031 L 190.445312 132.457031 L 190.445312 131.832031 L 191.070312 131.832031 Z M 142.945312 183.113281 C 143.351562 184.554688 143.167969 185.71875 142.945312 187.175781 L 142.320312 187.175781 L 142.242188 187.765625 L 142.007812 188.429688 C 141.363281 188.820312 141.363281 188.820312 140.757812 189.054688 L 140.757812 189.679688 C 139.355469 190.382812 138.234375 190.355469 136.695312 190.304688 L 136.695312 186.238281 L 137.007812 187.175781 C 138.070312 187.117188 138.070312 187.117188 139.195312 186.863281 C 139.820312 186.347656 139.820312 186.347656 140.132812 185.613281 L 140.230469 184.8125 L 140.445312 184.050781 C 141.964844 183.113281 141.964844 183.113281 142.945312 183.113281 M 268.878906 187.175781 C 269.039062 187.574219 269.195312 187.972656 269.347656 188.371094 L 269.613281 189.039062 C 269.816406 189.679688 269.816406 189.679688 269.816406 190.617188 L 267.941406 190.304688 L 267.941406 189.679688 L 267.121094 189.542969 C 266.066406 189.367188 266.066406 189.367188 265.089844 189.113281 L 264.191406 189.054688 C 263.445312 189.566406 263.445312 189.566406 262.941406 190.304688 L 262.628906 191.242188 L 264.191406 191.242188 L 264.191406 191.867188 L 264.816406 191.964844 C 266.015625 192.242188 267.109375 192.671875 268.253906 193.117188 L 268.253906 193.429688 C 265.507812 193.628906 263.066406 192.902344 260.441406 192.179688 L 260.441406 191.242188 C 261.003906 190.5625 261.597656 189.910156 262.21875 189.289062 L 262.722656 188.75 C 263.21875 188.246094 263.21875 188.246094 264.191406 187.488281 C 265.097656 187.535156 265.097656 187.535156 265.753906 187.804688 L 265.753906 188.429688 L 267.003906 188.117188 L 267.003906 187.488281 C 267.652344 187.316406 268.207031 187.175781 268.878906 187.175781 M 293.253906 167.476562 C 293.792969 168.554688 293.535156 169.785156 293.488281 170.964844 L 293.566406 171.855469 C 294.011719 172.402344 294.011719 172.402344 294.503906 172.792969 L 294.503906 173.417969 C 293.800781 173.964844 293.800781 173.964844 292.941406 174.359375 C 291.8125 173.964844 291.039062 173.203125 290.1875 172.382812 L 289.421875 171.664062 L 288.878906 170.917969 C 288.871094 170.097656 288.871094 170.097656 289.191406 169.355469 C 289.792969 168.871094 289.792969 168.871094 290.539062 168.496094 L 291.277344 168.109375 C 291.914062 167.828125 292.574219 167.617188 293.253906 167.476562 M 167.320312 152.78125 L 167.945312 152.78125 L 167.632812 154.03125 L 167.007812 154.03125 L 167.007812 154.660156 L 166.382812 154.660156 L 166.382812 155.285156 L 165.757812 155.285156 L 165.757812 155.910156 L 165.132812 155.910156 L 165.132812 156.535156 L 164.507812 156.535156 L 164.507812 157.160156 L 163.882812 157.160156 L 163.882812 157.785156 L 163.257812 157.785156 L 163.257812 158.410156 L 162.632812 158.410156 L 162.632812 159.347656 C 163.894531 158.664062 164.769531 157.882812 165.757812 156.847656 C 166.246094 156.34375 166.734375 155.84375 167.222656 155.34375 L 167.949219 154.59375 L 168.570312 154.03125 L 169.195312 154.03125 L 169.507812 153.40625 L 169.507812 155.910156 L 168.945312 156.011719 C 168.164062 156.25 167.839844 156.527344 167.269531 157.109375 L 166.734375 157.648438 L 166.1875 158.214844 L 165.632812 158.773438 C 164.855469 159.570312 164.191406 160.292969 163.570312 161.226562 C 163.152344 161.128906 162.734375 161.027344 162.320312 160.910156 L 162.007812 160.597656 C 161.828125 159.585938 161.75 159.070312 162.007812 158.097656 C 162.832031 157.023438 163.753906 156.113281 164.820312 155.285156 L 165.445312 155.285156 L 165.445312 154.660156 L 166.070312 154.660156 L 166.070312 154.03125 L 166.695312 154.03125 L 166.695312 153.40625 L 167.320312 153.40625 Z M 286.066406 172.792969 C 287.234375 173.769531 288.292969 174.714844 289.289062 175.863281 C 289.808594 176.433594 289.808594 176.433594 290.441406 176.859375 C 291.492188 177.121094 292.488281 177.1875 293.566406 177.171875 C 292.125 179.078125 292.125 179.078125 291.066406 179.671875 C 290.476562 179.605469 290.476562 179.605469 289.816406 179.359375 C 289.246094 178.894531 289.246094 178.894531 288.667969 178.304688 L 288.042969 177.664062 L 287.394531 176.996094 L 286.734375 176.320312 C 286.199219 175.773438 285.664062 175.222656 285.128906 174.671875 C 285.714844 173.144531 285.714844 173.144531 286.066406 172.792969 M 397.9375 168.730469 L 398.875 168.730469 L 398.875 169.355469 L 399.5 169.355469 L 399.5 169.980469 L 400.125 169.980469 L 400.125 170.605469 L 400.75 170.605469 L 400.75 171.230469 L 401.355469 171.484375 L 402 171.855469 L 402.3125 172.792969 C 402.9375 173.171875 402.9375 173.171875 403.5625 173.417969 L 403.5625 174.359375 L 403.042969 174.039062 C 402.160156 173.667969 401.617188 173.75 400.671875 173.847656 C 399.765625 173.875 399.765625 173.875 398.875 173.730469 C 397.878906 173.023438 397.128906 172.195312 396.375 171.230469 C 396.945312 169.738281 396.945312 169.738281 397.449219 169.101562 Z M 146.070312 178.421875 C 146.671875 179.039062 146.671875 179.039062 147.242188 179.828125 L 147.824219 180.621094 L 148.257812 181.238281 L 147.632812 181.550781 C 147.421875 181.964844 147.210938 182.378906 147.007812 182.800781 L 146.382812 183.425781 L 145.445312 183.425781 L 145.445312 182.800781 L 144.820312 182.800781 L 144.820312 182.175781 L 144.195312 182.175781 L 144.195312 181.550781 L 143.570312 181.550781 L 143.570312 180.925781 L 142.007812 180.296875 C 144.417969 178.421875 144.417969 178.421875 146.070312 178.421875 M 272.003906 185.613281 L 272.628906 185.613281 L 272.941406 186.863281 L 273.566406 186.863281 L 273.800781 187.472656 L 274.191406 188.117188 C 274.832031 188.367188 274.832031 188.367188 275.441406 188.429688 L 275.441406 189.054688 L 277.941406 189.054688 C 277.871094 189.617188 277.871094 189.617188 277.628906 190.304688 C 277.007812 190.835938 277.007812 190.835938 276.242188 191.320312 C 275.992188 191.484375 275.742188 191.644531 275.484375 191.8125 C 274.816406 192.179688 274.816406 192.179688 274.191406 192.179688 L 273.566406 191.242188 L 273.566406 190.304688 L 272.941406 190.304688 L 272.757812 189.734375 L 272.511719 188.976562 L 272.273438 188.226562 C 272.019531 187.53125 271.726562 186.894531 271.378906 186.238281 Z M 255.132812 167.792969 L 256.382812 168.105469 L 256.382812 168.730469 L 257.007812 168.730469 L 257.007812 169.355469 L 257.628906 169.355469 L 257.628906 169.980469 L 258.253906 169.980469 L 258.253906 170.605469 L 258.878906 170.605469 L 258.878906 171.230469 L 259.503906 171.230469 L 259.503906 171.855469 L 260.128906 171.855469 L 260.128906 172.480469 L 260.753906 172.480469 L 260.753906 173.105469 L 261.378906 173.105469 L 261.832031 173.867188 L 262.316406 174.671875 L 263.253906 174.984375 L 263.566406 173.730469 L 264.191406 174.671875 C 264.074219 175.511719 264.074219 175.511719 263.878906 176.234375 C 263.332031 176.46875 263.332031 176.46875 262.628906 176.546875 C 261.925781 175.980469 261.925781 175.980469 261.378906 175.296875 L 261.378906 174.671875 L 260.128906 174.359375 L 260.128906 173.730469 L 259.503906 173.730469 L 259.503906 173.105469 L 258.878906 173.105469 L 258.878906 172.480469 L 258.253906 172.480469 C 257.808594 172.011719 257.808594 172.011719 257.316406 171.40625 C 256.648438 170.558594 256.648438 170.558594 255.757812 169.980469 L 255.757812 169.355469 L 255.132812 169.355469 Z M 153.570312 175.609375 L 153.882812 175.609375 L 153.882812 178.734375 L 153.257812 179.046875 L 152.945312 179.984375 L 151.382812 180.296875 L 151.382812 180.925781 C 150.863281 180.867188 150.863281 180.867188 150.132812 180.609375 C 149.328125 179.898438 149.328125 179.898438 148.492188 179.027344 L 147.648438 178.15625 L 147.007812 177.484375 L 148.257812 176.546875 L 149.097656 177.347656 C 149.601562 177.785156 149.601562 177.785156 150.132812 178.109375 C 150.976562 178.164062 150.976562 178.164062 151.695312 177.796875 C 152.015625 177.492188 152.328125 177.179688 152.632812 176.859375 L 153.570312 176.859375 Z M 153.570312 175.609375 " fill-opacity="1" fill-rule="nonzero"/></g><g clip-path="url(#68ae3a7848)"><path fill="#f4f4f2" d="M 293.878906 167.792969 L 294.816406 168.105469 L 294.503906 168.417969 C 294.425781 169.339844 294.425781 169.339844 294.503906 170.292969 L 295.128906 170.917969 C 295.816406 171.0625 295.816406 171.0625 296.574219 171.113281 L 297.347656 171.183594 L 297.941406 171.230469 L 298.566406 168.730469 L 299.191406 168.730469 C 299.234375 171.242188 299.234375 171.242188 298.878906 172.480469 C 298.179688 172.621094 297.476562 172.75 296.769531 172.871094 L 295.582031 173.09375 L 294.503906 173.105469 C 293.742188 172.617188 293.742188 172.617188 293.253906 171.855469 C 293.132812 170.914062 293.132812 170.914062 293.175781 169.902344 L 293.210938 168.878906 L 293.253906 168.105469 Z M 284.191406 176.859375 L 285.128906 176.859375 L 285.128906 177.484375 L 285.753906 177.484375 L 285.753906 178.109375 L 286.320312 178.324219 C 287.003906 178.734375 287.003906 178.734375 287.570312 179.515625 L 287.941406 180.296875 L 287.628906 180.925781 L 287.003906 180.925781 L 287.003906 181.550781 L 286.378906 181.550781 L 286.378906 182.175781 L 284.191406 181.863281 C 283.90625 180.082031 283.90625 178.636719 284.191406 176.859375 M 158.882812 170.292969 L 159.195312 170.292969 C 159.222656 170.839844 159.238281 171.386719 159.253906 171.933594 L 159.289062 172.859375 C 159.195312 173.730469 159.195312 173.730469 158.824219 174.464844 L 158.257812 174.984375 C 157.484375 175.105469 157.484375 175.105469 156.636719 175.0625 L 155.785156 175.027344 L 155.132812 174.984375 L 155.132812 174.359375 L 154.507812 174.359375 L 154.507812 173.730469 L 153.882812 173.417969 C 154.574219 172.816406 155.03125 172.5 155.941406 172.320312 L 156.773438 172.265625 L 157.621094 172.203125 L 158.257812 172.167969 Z M 395.378906 189.777344 L 396.375 189.992188 L 396.375 192.804688 L 391.6875 192.804688 C 392.402344 190.816406 392.402344 190.816406 393.328125 189.992188 C 394.1875 189.679688 394.1875 189.679688 395.378906 189.777344 M 255.757812 165.914062 L 256.382812 165.914062 L 256.382812 166.539062 L 256.921875 166.621094 C 257.839844 166.921875 258.285156 167.394531 258.957031 168.085938 L 259.628906 168.757812 L 260.128906 169.355469 L 260.128906 169.980469 L 260.753906 169.980469 L 260.753906 170.605469 L 261.316406 170.847656 C 262.070312 171.265625 262.476562 171.699219 263.019531 172.363281 L 263.515625 172.960938 L 263.878906 173.417969 L 263.566406 174.042969 L 262.941406 174.042969 C 262.554688 173.597656 262.175781 173.144531 261.804688 172.683594 C 260.949219 171.640625 260.003906 170.75 258.9375 169.921875 L 258.253906 169.355469 L 258.253906 168.730469 L 257.628906 168.730469 L 257.628906 168.105469 L 257.007812 168.105469 L 257.007812 167.476562 L 256.382812 167.476562 L 256.382812 166.851562 L 255.757812 166.851562 Z M 169.195312 152.46875 C 169.269531 153.179688 169.269531 153.179688 169.195312 154.03125 C 168.691406 154.621094 168.691406 154.621094 168.023438 155.148438 C 167.796875 155.332031 167.566406 155.515625 167.332031 155.707031 L 166.695312 156.222656 L 165.953125 156.984375 L 165.445312 157.472656 L 164.820312 157.472656 L 164.546875 158.058594 C 164.195312 158.722656 164.195312 158.722656 163.570312 159.347656 L 162.632812 159.347656 L 162.632812 158.410156 L 163.257812 158.410156 L 163.257812 157.785156 L 163.882812 157.785156 L 163.882812 157.160156 L 164.507812 157.160156 L 164.507812 156.535156 L 165.132812 156.535156 L 165.132812 155.910156 L 165.757812 155.910156 L 165.757812 155.285156 L 166.382812 155.285156 L 166.382812 154.660156 L 167.007812 154.660156 L 167.007812 154.03125 L 167.632812 154.03125 L 167.75 153.425781 L 167.945312 152.78125 C 168.570312 152.46875 168.570312 152.46875 169.195312 152.46875 M 279.816406 181.550781 L 280.441406 181.550781 L 280.128906 184.050781 L 279.503906 184.050781 L 279.191406 185.925781 L 276.691406 185.925781 C 276.761719 185.238281 276.761719 185.238281 277.003906 184.363281 C 277.628906 183.59375 277.628906 183.59375 278.390625 182.859375 L 279.152344 182.109375 Z M 275.441406 180.296875 L 277.316406 180.296875 L 277.316406 182.175781 L 276.378906 182.488281 L 276.378906 183.113281 L 275.441406 183.738281 C 274.757812 183.621094 274.757812 183.621094 274.191406 183.425781 L 274.191406 181.550781 L 275.441406 180.925781 Z M 141.695312 180.609375 L 141.695312 181.550781 L 141.070312 181.550781 L 140.445312 182.800781 L 139.820312 182.800781 L 139.820312 183.425781 L 139.195312 183.425781 L 139.195312 184.050781 L 138.570312 184.050781 L 138.316406 184.636719 C 137.945312 185.300781 137.945312 185.300781 137.007812 185.925781 C 137.066406 184.949219 137.066406 184.949219 137.320312 183.738281 C 138.109375 182.558594 138.824219 181.839844 140.035156 181.121094 C 141.070312 180.609375 141.070312 180.609375 141.695312 180.609375 M 406.0625 184.988281 L 406.6875 184.988281 L 407 187.175781 L 407.625 187.175781 L 408.25 189.679688 L 408.875 189.679688 L 408.875 190.617188 L 407 190.304688 L 407 189.679688 L 405.4375 189.367188 L 405.4375 188.429688 L 406.0625 188.429688 L 406.0625 189.054688 L 406.6875 189.054688 L 406.6875 187.804688 L 406.0625 187.804688 Z M 277.316406 176.234375 L 278.253906 176.859375 L 278.253906 177.484375 L 277.101562 177.738281 C 275.992188 178.011719 275.160156 178.429688 274.191406 179.046875 L 273.488281 179.203125 L 272.941406 179.359375 L 272.628906 180.296875 L 271.691406 179.984375 C 272.101562 179.203125 272.101562 179.203125 272.628906 178.421875 L 273.566406 178.421875 L 273.566406 177.796875 L 274.191406 177.796875 L 274.191406 177.171875 L 275.441406 177.171875 L 275.441406 176.546875 C 276.320312 176.351562 276.320312 176.351562 277.316406 176.234375 M 411.6875 179.984375 C 412.144531 180.734375 412.316406 181.253906 412.398438 182.136719 L 412.390625 183.113281 L 412.398438 184.089844 C 412.316406 184.972656 412.144531 185.488281 411.6875 186.238281 L 411.6875 185.613281 L 411.0625 185.613281 C 410.691406 184.453125 410.667969 183.386719 410.75 182.175781 C 411.007812 181.402344 411.328125 180.71875 411.6875 179.984375 " fill-opacity="1" fill-rule="nonzero"/></g><g clip-path="url(#024b0819af)"><path fill="#f4f4f2" d="M 167.320312 152.78125 L 167.945312 152.78125 L 167.632812 154.03125 L 167.007812 154.03125 L 167.007812 154.660156 L 166.382812 154.660156 L 166.382812 155.285156 L 165.757812 155.285156 L 165.757812 155.910156 L 165.132812 155.910156 L 165.132812 156.535156 L 164.507812 156.535156 L 164.507812 157.160156 L 163.882812 157.160156 L 163.882812 157.785156 L 163.257812 157.785156 L 163.257812 158.410156 L 162.632812 158.410156 L 162.632812 159.347656 L 163.882812 159.035156 L 163.882812 159.660156 L 162.320312 159.660156 C 162.082031 158.972656 162.082031 158.972656 162.007812 158.097656 C 162.570312 157.328125 162.570312 157.328125 163.355469 156.59375 L 164.132812 155.84375 L 164.820312 155.285156 L 165.445312 155.285156 L 165.445312 154.660156 L 166.070312 154.660156 L 166.070312 154.03125 L 166.695312 154.03125 L 166.695312 153.40625 L 167.320312 153.40625 Z M 396.6875 169.980469 L 397.625 169.980469 C 398.175781 170.496094 398.175781 170.496094 398.738281 171.171875 L 399.308594 171.84375 C 399.8125 172.480469 399.8125 172.480469 400.4375 173.417969 C 399.742188 173.648438 399.742188 173.648438 398.875 173.730469 C 398.167969 173.257812 398.167969 173.257812 397.507812 172.578125 L 396.839844 171.910156 L 396.375 171.230469 C 396.460938 170.519531 396.460938 170.519531 396.6875 169.980469 M 394.5 190.617188 L 395.4375 190.617188 L 396.0625 191.554688 L 396.0625 192.804688 L 392.625 192.804688 L 392.625 192.179688 L 393.25 192.179688 L 393.25 191.554688 C 393.816406 191.046875 393.816406 191.046875 394.5 190.617188 M 158.570312 168.730469 C 159.035156 169.105469 159.035156 169.105469 159.507812 169.667969 C 159.601562 170.375 159.601562 170.375 159.566406 171.132812 L 159.542969 171.898438 L 159.507812 172.480469 L 158.882812 171.855469 L 158.257812 172.480469 C 157.417969 172.566406 156.605469 172.507812 155.757812 172.480469 C 156.320312 171.859375 156.757812 171.511719 157.515625 171.132812 L 158.257812 170.605469 C 158.539062 169.636719 158.539062 169.636719 158.570312 168.730469 M 187.320312 136.835938 L 187.632812 137.773438 C 186.933594 138.5 186.230469 139.222656 185.523438 139.941406 L 184.921875 140.566406 L 184.335938 141.164062 L 183.800781 141.714844 C 183.203125 142.195312 182.757812 142.335938 182.007812 142.464844 C 183.65625 140.460938 185.472656 138.652344 187.320312 136.835938 M 288.878906 169.667969 L 289.503906 169.980469 L 289.503906 170.605469 L 290.128906 170.605469 L 290.128906 171.230469 L 290.753906 171.230469 L 290.753906 171.855469 L 291.378906 171.855469 L 291.378906 172.480469 L 292.003906 172.480469 L 292.003906 173.105469 L 292.941406 173.417969 L 292.941406 174.359375 C 291.824219 173.878906 291.070312 173.214844 290.207031 172.363281 C 289.957031 172.125 289.707031 171.882812 289.449219 171.632812 L 288.878906 170.917969 Z M 277.316406 189.679688 L 277.941406 189.992188 C 277.554688 190.300781 277.164062 190.605469 276.769531 190.910156 L 276.113281 191.425781 C 275.457031 191.859375 274.960938 192.042969 274.191406 192.179688 L 273.566406 191.242188 L 273.878906 190.304688 L 275.742188 190.367188 C 276.476562 190.347656 276.476562 190.347656 277.316406 189.679688 M 152.320312 174.042969 L 152.945312 174.042969 L 152.945312 174.671875 L 153.570312 174.671875 L 153.570312 175.296875 L 154.195312 175.296875 C 154.390625 176.332031 154.390625 176.332031 154.507812 177.484375 L 153.882812 178.421875 L 153.765625 177.660156 L 153.570312 176.859375 L 152.945312 176.546875 C 152.417969 175.980469 152.417969 175.980469 152.007812 175.296875 C 152.105469 174.59375 152.105469 174.59375 152.320312 174.042969 M 398.25 169.042969 L 399.5 169.355469 L 399.5 169.980469 L 400.125 169.980469 L 400.125 170.605469 L 400.75 170.605469 L 400.75 171.230469 L 401.335938 171.464844 C 402 171.855469 402 171.855469 402.390625 172.519531 L 402.625 173.105469 L 401.6875 173.105469 L 401.6875 172.480469 L 401.0625 172.480469 L 401.0625 171.855469 L 400.4375 171.855469 L 400.4375 171.230469 L 399.8125 171.230469 L 399.8125 170.605469 L 399.207031 170.351562 L 398.5625 169.980469 Z M 272.003906 185.613281 L 272.628906 185.613281 L 272.941406 186.863281 L 273.566406 186.863281 L 273.253906 187.488281 L 272.628906 187.175781 L 272.835938 187.703125 L 273.097656 188.390625 L 273.363281 189.070312 C 273.566406 189.679688 273.566406 189.679688 273.566406 190.304688 L 272.941406 190.304688 L 272.757812 189.734375 L 272.511719 188.976562 L 272.273438 188.226562 C 272.019531 187.53125 271.726562 186.894531 271.378906 186.238281 Z M 293.878906 167.792969 L 294.816406 168.105469 L 294.523438 169.082031 C 294.230469 170.101562 294.035156 171.117188 293.878906 172.167969 L 293.253906 171.855469 L 293.253906 168.105469 Z M 262.628906 191.554688 L 263.878906 191.554688 L 263.878906 192.179688 L 264.621094 192.296875 L 265.441406 192.492188 L 266.066406 193.117188 C 264.390625 193.257812 264.390625 193.257812 263.566406 193.117188 C 262.941406 192.335938 262.941406 192.335938 262.628906 191.554688 M 297.003906 167.164062 L 298.566406 167.164062 L 299.191406 168.730469 L 298.566406 168.730469 L 298.566406 170.292969 L 297.941406 170.605469 L 297.941406 167.792969 L 297.003906 167.476562 Z M 147.007812 197.496094 L 147.632812 197.496094 L 147.632812 200.621094 L 146.695312 199.996094 C 146.617188 199.058594 146.617188 199.058594 146.695312 198.121094 Z M 147.007812 197.496094 " fill-opacity="1" fill-rule="nonzero"/></g><g clip-path="url(#e78c7c9c4f)"><path fill="#f4f4f2" d="M 158.257812 170.605469 L 158.570312 171.542969 C 158.042969 172.011719 158.042969 172.011719 157.320312 172.480469 C 156.460938 172.539062 156.460938 172.539062 155.757812 172.480469 C 156.5 171.664062 157.304688 171.148438 158.257812 170.605469 M 295.753906 167.164062 L 295.480469 167.671875 C 295.078125 168.527344 294.789062 169.394531 294.503906 170.292969 L 294.191406 170.292969 L 294.210938 169.375 L 294.191406 168.417969 L 293.878906 168.105469 L 293.566406 167.476562 C 294.503906 167.164062 294.503906 167.164062 295.753906 167.164062 M 261.378906 191.554688 C 262.121094 191.652344 262.121094 191.652344 262.941406 191.867188 L 263.566406 192.804688 L 261.378906 192.492188 Z M 274.816406 180.925781 L 275.441406 181.238281 L 274.816406 183.425781 L 275.441406 183.738281 L 274.191406 183.425781 C 274.152344 182.527344 274.152344 182.527344 274.191406 181.550781 Z M 147.320312 184.675781 L 147.945312 184.988281 C 147.417969 185.632812 147.417969 185.632812 146.695312 186.238281 C 145.835938 186.160156 145.835938 186.160156 145.132812 185.925781 L 145.445312 185.300781 C 146.363281 184.929688 146.363281 184.929688 147.320312 184.675781 M 149.195312 175.921875 L 149.820312 176.234375 C 150.082031 177.011719 150.132812 177.59375 150.132812 178.421875 C 149.601562 177.914062 149.078125 177.394531 148.570312 176.859375 L 148.570312 176.234375 Z M 269.503906 189.367188 L 270.128906 189.367188 L 270.441406 191.554688 L 269.816406 191.554688 L 269.816406 190.929688 L 268.566406 190.929688 L 268.878906 190.304688 L 269.816406 190.617188 Z M 268.253906 187.175781 L 268.878906 187.175781 C 269.210938 187.746094 269.210938 187.746094 269.503906 188.429688 L 269.191406 189.367188 L 268.566406 189.054688 C 268.371094 188.097656 268.371094 188.097656 268.253906 187.175781 M 392.9375 190.929688 L 393.875 190.929688 L 393.875 191.554688 L 393.25 191.554688 L 393.25 192.179688 L 392.625 192.179688 Z M 274.816406 190.929688 L 276.378906 190.929688 C 275.949219 191.398438 275.949219 191.398438 275.441406 191.867188 L 274.816406 191.867188 Z M 278.253906 177.171875 L 278.878906 177.484375 L 278.878906 178.109375 L 277.316406 177.796875 Z M 277.316406 176.234375 L 278.253906 177.171875 L 276.691406 177.171875 Z M 255.445312 168.417969 L 256.382812 168.730469 L 256.070312 169.667969 Z M 255.445312 168.417969 " fill-opacity="1" fill-rule="nonzero"/></g></svg>